<svg width="81" height="105" viewBox="0 0 81 105" fill="none" xmlns="http://www.w3.org/2000/svg">
<g opacity="0.2">
<path d="M20.8111 53.8584H0V104.54H20.8111V53.8584Z" fill="#C2C3F2"/>
<path d="M50.6109 73.7744H29.7998V104.539H50.6109V73.7744Z" fill="#FAC634"/>
<path d="M80.4116 33.9419H59.6006V104.539H80.4116V33.9419Z" fill="#ED637F"/>
<path d="M71.9199 1.7014C69.6508 -0.567132 65.973 -0.567132 63.7039 1.7014C61.5859 3.81938 61.4469 7.16486 63.2829 9.44613L40.8767 39.3961C38.6603 38.1368 35.7937 38.4466 33.9038 40.3364C33.7394 40.5009 33.5906 40.6746 33.4499 40.8523L13.6891 27.6453C14.4025 25.6055 13.9502 23.2484 12.3198 21.6179C10.0507 19.3494 6.37227 19.3494 4.10374 21.6179C1.83521 23.8864 1.83521 27.5654 4.10374 29.8339C6.29526 32.0254 9.79767 32.0932 12.0789 30.0516L32.2774 43.5511C32.0035 45.3199 32.5414 47.1901 33.9038 48.5525C36.1729 50.821 39.8507 50.821 42.1198 48.5525C44.0531 46.6192 44.3328 43.6657 42.9716 41.4296L65.6007 11.182C67.7042 12.0464 70.2113 11.6261 71.9199 9.91743C74.1884 7.6489 74.1884 3.9705 71.9199 1.7014Z" fill="#44B8FA"/>
</g>
</svg>
