<svg width="21" height="21" viewBox="0 0 21 21" fill="none" xmlns="http://www.w3.org/2000/svg">
<path d="M1.69839 19.3026C2.25976 19.864 3.16993 19.864 3.73132 19.3026L20.023 3.01089C20.5844 2.4495 20.5844 1.53946 20.023 0.978069C19.4616 0.416679 18.5514 0.416679 17.99 0.978069L1.69839 17.2697C1.137 17.831 1.137 18.7412 1.69839 19.3026Z" fill="#615CF6"/>
<path d="M19.0059 20.6821C19.7998 20.6821 20.4434 20.0386 20.4434 19.2446V1.99455C20.4434 1.20067 19.7998 0.557053 19.0059 0.557053H1.75586C0.961938 0.557053 0.318359 1.20067 0.318359 1.99455C0.318359 2.78863 0.961938 3.43205 1.75586 3.43205H17.5684V19.2446C17.5684 20.0386 18.2119 20.6821 19.0059 20.6821Z" fill="#615CF6"/>
</svg>
