<svg width="177" height="41" viewBox="0 0 177 41" fill="none" xmlns="http://www.w3.org/2000/svg">
<path fill-rule="evenodd" clip-rule="evenodd" d="M3.28635 4.18688C5.78867 2.0776 8.75557 4.48324 6.78243 7.03412C5.57988 8.51759 3.5264 8.68267 2.49738 7.46189C1.62248 6.42458 1.8213 5.42181 3.28635 4.18688Z" fill="#615CF6"/>
<path fill-rule="evenodd" clip-rule="evenodd" d="M21.7253 7.17483C22.9821 4.39313 28.5614 6.05812 28.3026 9.09464C28.13 11.1194 27.097 11.9376 24.9602 11.7555C22.0922 11.5117 20.6241 9.46048 21.7253 7.17483Z" fill="#615CF6"/>
<path fill-rule="evenodd" clip-rule="evenodd" d="M45.2557 10.2568C45.805 9.79376 53.627 10.404 74.4208 12.346C103.697 15.1243 130.432 18.4795 144.484 21.0933C148.888 21.9222 152.735 22.6465 153.072 22.6752C153.41 22.704 152.366 21.6518 150.831 20.3884C147.186 17.3017 145.742 14.9695 146.639 13.7431C147.846 12.2031 149.233 12.548 152.402 15.254C156.586 18.6697 160.646 20.8848 166.548 22.7471C172.169 24.586 174.898 26.4609 174.946 28.5608C175.003 30.5482 173.934 31.1372 168.71 31.9379C162.282 32.9196 155.257 34.9265 151.119 36.9528C147.037 38.9844 145.12 38.8774 145.021 36.7162C144.954 34.8414 146.776 33.4101 152.241 31.1005C157.293 28.9818 157.672 29.1844 145.743 26.9213C130.974 24.0766 114.399 21.814 84.1535 18.4432C49.6955 14.6571 41.9598 13.0345 45.2557 10.2568Z" fill="#615CF6"/>
</svg>
