<svg width="24" height="24" viewBox="0 0 24 24" fill="none" xmlns="http://www.w3.org/2000/svg">
<path d="M23.3091 17.9915L19.8403 14.5212C19.3745 14.0578 18.7507 13.8024 18.0841 13.8024C17.3904 13.8024 16.7354 14.0755 16.2402 14.5711L14.8899 15.921C13.8407 15.3378 12.4461 14.5357 10.9983 13.0879C9.55208 11.6412 8.74986 10.2507 8.16368 9.19581L9.51524 7.84525C10.5201 6.83831 10.5406 5.22285 9.56121 4.2443L6.09311 0.776104C5.62856 0.310262 5.00475 0.0537109 4.33647 0.0537109C3.65826 0.0537109 3.01669 0.314829 2.52433 0.790103C2.22648 1.02997 0.731756 2.34946 0.174671 5.07065C-0.605306 8.87949 1.18678 12.5442 6.36028 17.7198C12.1395 23.4972 17.0733 23.9463 18.4478 23.9463C18.7339 23.9463 18.9065 23.9286 18.9526 23.9233C21.6479 23.6073 22.6129 22.4104 23.3175 21.5364C24.2306 20.4036 24.2274 18.9132 23.3091 17.9915ZM22.1581 20.6016C21.4958 21.4231 20.8703 22.1989 18.7794 22.444C18.7783 22.4441 18.6639 22.4569 18.4478 22.4569C17.218 22.4569 12.7878 22.0393 7.41339 16.6667C2.64248 11.8938 0.967953 8.62066 1.63365 5.36929C2.11955 2.9958 3.40955 1.98698 3.45969 1.94865L3.50417 1.91579L3.54319 1.87667C3.75854 1.66152 4.04021 1.54298 4.33637 1.54298C4.60603 1.54298 4.85543 1.64405 5.03931 1.82852L8.5082 5.29751C8.90732 5.69624 8.88608 6.3672 8.46144 6.79273L6.93296 8.31993L6.90784 8.34624C6.50951 8.78497 6.55637 9.3779 6.77579 9.76402C7.40892 10.9066 8.27617 12.4714 9.94494 14.1407C11.6082 15.8039 13.1707 16.6704 14.3101 17.3024C14.4242 17.3664 14.6597 17.4738 14.9544 17.4738C15.3025 17.4738 15.6221 17.3265 15.8587 17.0579L17.2932 15.6239C17.5073 15.4096 17.7881 15.2916 18.0839 15.2916C18.3541 15.2916 18.6048 15.3929 18.7883 15.5754L22.2548 19.0434C22.6951 19.4853 22.5133 20.161 22.1581 20.6016Z" fill="#615CF6"/>
<path d="M14.5404 3.70222C15.8199 3.84946 17.3264 4.62448 18.3784 5.67659C19.4403 6.73844 20.2172 8.26027 20.3575 9.55365C20.3989 9.93519 20.7215 10.218 21.0968 10.218C21.1236 10.218 21.1509 10.2165 21.1781 10.2136C21.5869 10.1692 21.8824 9.80186 21.838 9.393C21.6606 7.75809 20.7384 5.93056 19.4315 4.62358C18.1369 3.32881 16.328 2.40895 14.7107 2.22279C14.3023 2.17543 13.9329 2.46891 13.8858 2.87737C13.8388 3.28582 14.1317 3.65516 14.5404 3.70222Z" fill="#615CF6"/>
<path d="M13.8442 6.8215C14.5362 6.90123 15.4939 7.41453 16.1213 8.0419C16.754 8.67474 17.2683 9.64157 17.3441 10.341C17.3855 10.7227 17.7081 11.0054 18.0834 11.0054C18.1102 11.0054 18.1373 11.004 18.1646 11.0011C18.5734 10.9567 18.869 10.5893 18.8246 10.1805C18.6951 8.9863 17.9023 7.71695 17.1742 6.9888C16.4526 6.2671 15.1957 5.47808 14.0145 5.34197C13.6055 5.29441 13.2366 5.58799 13.1895 5.99645C13.1425 6.405 13.4356 6.77444 13.8442 6.8215Z" fill="#615CF6"/>
</svg>
