<svg width="11" height="11" viewBox="0 0 11 11" fill="none" xmlns="http://www.w3.org/2000/svg">
<path d="M1.14741 9.85357C1.4403 10.1465 1.91517 10.1465 2.20807 9.85357L10.7081 1.35355C11.001 1.06065 11.001 0.585848 10.7081 0.292948C10.4152 4.76837e-05 9.94028 4.76837e-05 9.64738 0.292948L1.14741 8.79291C0.854509 9.08581 0.854509 9.56068 1.14741 9.85357Z" fill="white"/>
<path d="M10.1778 10.5732C10.592 10.5732 10.9278 10.2375 10.9278 9.82324V0.823202C10.9278 0.409002 10.592 0.0732021 10.1778 0.0732021H1.17773C0.763514 0.0732021 0.427734 0.409002 0.427734 0.823202C0.427734 1.2375 0.763514 1.5732 1.17773 1.5732H9.42777V9.82324C9.42777 10.2375 9.76347 10.5732 10.1778 10.5732Z" fill="white"/>
</svg>
