<svg width="21" height="20" viewBox="0 0 21 20" fill="none" xmlns="http://www.w3.org/2000/svg">
<g clip-path="url(#clip0_689_6093)">
<path d="M15.1994 4.86386L7.39983 4.86389C7.04839 4.86386 6.76347 5.14879 6.76347 5.50025C6.76347 5.85171 7.04836 6.13661 7.39983 6.13661L13.6632 6.13664L5.75036 14.0504C5.50188 14.2988 5.50191 14.7017 5.75042 14.9502C5.99893 15.1988 6.4019 15.1987 6.65037 14.9502L14.5631 7.03665L14.5631 13.2998C14.5631 13.6513 14.848 13.9362 15.1995 13.9362C15.3752 13.9362 15.5343 13.865 15.6494 13.7498C15.7646 13.6347 15.8358 13.4756 15.8358 13.2999L15.8358 5.50022C15.8358 5.33145 15.7687 5.16958 15.6494 5.05024C15.5301 4.93091 15.3682 4.86383 15.1994 4.86386Z" fill="white"/>
</g>
<defs>
<clipPath id="clip0_689_6093">
<rect width="14" height="14" fill="white" transform="translate(0.800293 10) rotate(-45)"/>
</clipPath>
</defs>
</svg>
