<svg width="36" height="36" viewBox="0 0 36 36" fill="none" xmlns="http://www.w3.org/2000/svg">
<path d="M18 0C10.5547 0 4.5 6.05475 4.5 13.5C4.5 22.8577 16.686 35.1517 17.2035 35.6715C17.424 35.8898 17.712 36 18 36C18.288 36 18.576 35.8898 18.7965 35.6715C19.314 35.1517 31.5 22.8577 31.5 13.5C31.5 6.05475 25.4452 0 18 0ZM18 33.2483C15.3135 30.3728 6.75 20.6483 6.75 13.5C6.75 7.29675 11.7968 2.25 18 2.25C24.2033 2.25 29.25 7.29675 29.25 13.5C29.25 20.6415 20.6865 30.3728 18 33.2483Z" fill="#258D78"/>
<path d="M18 6.75C14.2785 6.75 11.25 9.7785 11.25 13.5C11.25 17.2215 14.2785 20.25 18 20.25C21.7215 20.25 24.75 17.2215 24.75 13.5C24.75 9.7785 21.7215 6.75 18 6.75ZM18 18C15.5182 18 13.5 15.9818 13.5 13.5C13.5 11.0182 15.5182 9 18 9C20.4818 9 22.5 11.0182 22.5 13.5C22.5 15.9818 20.4818 18 18 18Z" fill="#258D78"/>
</svg>
