<svg width="36" height="36" viewBox="0 0 36 36" fill="none" xmlns="http://www.w3.org/2000/svg">
<g clip-path="url(#clip0_1186_67)">
<path d="M30.728 5.27203C27.3281 1.87228 22.8079 0 18 0C13.192 0 8.67178 1.87228 5.27203 5.27203C1.87235 8.67171 0 13.192 0 18C0 22.808 1.87235 27.3281 5.27203 30.7279C8.67178 34.1277 13.192 36 18 36C22.8079 36 27.3281 34.1277 30.728 30.7279C34.1276 27.3281 36 22.808 36 18C36 13.192 34.1276 8.67171 30.728 5.27203ZM27.5648 18.9134L14.0085 26.7398C13.8454 26.834 13.6633 26.8811 13.4812 26.8811C13.299 26.8811 13.1169 26.834 12.9538 26.7398C12.6275 26.5513 12.4265 26.2032 12.4265 25.8264V10.1734C12.4265 9.79657 12.6275 9.44838 12.9538 9.26002C13.2801 9.07158 13.6822 9.07158 14.0085 9.26002L27.5648 17.0866C27.8911 17.2751 28.0922 17.6232 28.0922 18C28.0922 18.3768 27.8911 18.725 27.5648 18.9134Z" fill="white"/>
</g>
<defs>
<clipPath id="clip0_1186_67">
<rect width="36" height="36" fill="white"/>
</clipPath>
</defs>
</svg>
