<svg width="86" height="30" viewBox="0 0 86 30" fill="none" xmlns="http://www.w3.org/2000/svg">
<g clip-path="url(#clip0_1387_1741)">
<path fill-rule="evenodd" clip-rule="evenodd" d="M21.0599 10.6333H11.0648V13.5808H18.1538C17.8035 17.7141 14.343 19.4769 11.0769 19.4769C6.89794 19.4769 3.25138 16.2095 3.25138 11.6295C3.25138 7.16798 6.72763 3.73228 11.0859 3.73228C14.4487 3.73228 16.4302 5.86247 16.4302 5.86247L18.5065 3.7253C18.5065 3.7253 15.8413 0.776428 10.9798 0.776428C4.78958 0.776096 0 5.96854 0 11.577C0 17.0724 4.50483 22.4314 11.1378 22.4314C16.971 22.4311 21.2409 18.46 21.2409 12.5875C21.2409 11.3485 21.0599 10.6326 21.0599 10.6326V10.6333Z" fill="#176BEF"/>
<path fill-rule="evenodd" clip-rule="evenodd" d="M29.2893 11.2327C31.3063 11.2327 33.2176 12.8531 33.2176 15.4641C33.2176 18.0202 31.3144 19.6866 29.2803 19.6866C27.0451 19.6866 25.2814 17.9079 25.2814 15.4441C25.2814 13.033 27.0227 11.2327 29.2893 11.2327ZM29.2485 8.49893C25.1472 8.49893 22.208 11.6852 22.208 15.4019C22.208 19.1728 25.0592 22.4186 29.2967 22.4186C33.1329 22.4186 36.2763 19.5047 36.2763 15.4827C36.2763 10.8729 32.62 8.49893 29.2485 8.49893Z" fill="#FF3E30"/>
<path fill-rule="evenodd" clip-rule="evenodd" d="M44.6015 11.2327C46.6188 11.2327 48.5301 12.8531 48.5301 15.4641C48.5301 18.0202 46.6265 19.6866 44.5924 19.6866C42.3576 19.6866 40.5942 17.9079 40.5942 15.4441C40.5942 13.033 42.3355 11.2327 44.6015 11.2327ZM44.561 8.49893C40.46 8.49893 37.5205 11.6852 37.5205 15.4019C37.5205 19.1728 40.3714 22.4186 44.6092 22.4186C48.4455 22.4186 51.5884 19.5047 51.5884 15.4827C51.5884 10.8729 47.9325 8.49893 44.561 8.49893Z" fill="#F7B529"/>
<path fill-rule="evenodd" clip-rule="evenodd" d="M59.8518 11.2347C61.6975 11.2347 63.5927 12.8006 63.5927 15.4751C63.5927 18.1939 61.7012 19.6922 59.811 19.6922C57.8043 19.6922 55.9369 18.0728 55.9369 15.501C55.9369 12.8288 57.8763 11.2347 59.8518 11.2347ZM59.5791 8.50629C55.8147 8.50629 52.8555 11.783 52.8555 15.4608C52.8555 19.6497 56.2862 22.428 59.5142 22.428C61.5104 22.428 62.5718 21.6405 63.3558 20.737V22.1091C63.3558 24.5106 61.8882 25.9488 59.6738 25.9488C57.5346 25.9485 56.4619 24.3679 56.0891 23.4708L53.3972 24.5891C54.3522 26.5952 56.2745 28.6878 59.6962 28.6878C63.4391 28.6878 66.2916 26.3448 66.2916 21.4314V8.92461H63.3558V10.1038C62.453 9.13676 61.218 8.50629 59.5791 8.50629Z" fill="#176BEF"/>
<path fill-rule="evenodd" clip-rule="evenodd" d="M79.4685 11.1665C80.748 11.1665 81.6689 11.8422 82.06 12.6529L75.7888 15.258C75.5184 13.2412 77.4411 11.1665 79.4685 11.1665ZM79.346 8.48932C75.7948 8.48932 72.8135 11.2972 72.8135 15.4402C72.8135 19.8243 76.1368 22.4243 79.687 22.4243C82.6503 22.4243 84.4689 20.8132 85.5547 19.3697L83.1331 17.7689C82.5051 18.7379 81.4547 19.6846 79.702 19.6846C77.7335 19.6846 76.8281 18.6132 76.267 17.5757L85.6581 13.703L85.1705 12.5681C84.2631 10.3458 82.1467 8.48965 79.3464 8.48965L79.346 8.48932Z" fill="#FF3E30"/>
<path fill-rule="evenodd" clip-rule="evenodd" d="M68.3389 22.011H71.4236V1.49622H68.3389V22.011Z" fill="#179C52"/>
</g>
<defs>
<clipPath id="clip0_1387_1741">
<rect width="85.6596" height="28.5532" fill="white" transform="translate(0 0.765961)"/>
</clipPath>
</defs>
</svg>
