<svg width="60" height="20" viewBox="0 0 60 20" fill="none" xmlns="http://www.w3.org/2000/svg">
<path fill-rule="evenodd" clip-rule="evenodd" d="M11.8469 0.591409H17.6094V19.0758H13.391V16.989H8.2689L10.3027 13.4112H13.0898V6.8521L5.48183 19.0758H0.359375L11.8469 0.591409ZM18.3352 11.2583L24.8367 0.591409H30.5989V19.0758H26.3809V16.989H21.2584L23.2922 13.4112H26.0796V6.8521L18.3205 19.0758L18.3352 11.2583ZM45.205 12.8034C44.2153 14.1596 42.5576 15.0424 40.7376 15.0424C37.727 15.0424 35.2867 12.6276 35.2867 9.64838C35.2867 6.66982 37.7273 4.25465 40.7376 4.25465C42.5287 4.25465 44.1087 5.10921 45.103 6.42827V1.42909C43.7539 0.738181 42.2566 0.378654 40.7376 0.38087C35.5082 0.38087 31.2693 4.57511 31.2693 9.74899C31.2693 14.9229 35.5082 19.1175 40.7376 19.1175C42.3713 19.1175 43.8639 18.7078 45.205 17.9869V12.8034ZM59.5276 12.8034C58.5372 14.1596 56.8802 15.0424 55.0602 15.0424C52.0492 15.0424 49.6087 12.6276 49.6087 9.64838C49.6087 6.66982 52.0492 4.25465 55.0602 4.25465C56.8506 4.25465 58.4313 5.10921 59.4249 6.42827V1.42909C58.0761 0.738097 56.5791 0.378562 55.0602 0.38087C49.8308 0.38087 45.5916 4.57511 45.5916 9.74899C45.5916 14.9229 49.8312 19.1175 55.0602 19.1175C56.6939 19.1175 58.1865 18.7078 59.5276 17.9869V12.8034Z" fill="#C43F42"/>
</svg>
