<svg width="27" height="27" viewBox="0 0 27 27" fill="none" xmlns="http://www.w3.org/2000/svg">
<path d="M22.8788 0.660395L1.85921 9.35173C0.973659 9.71786 0.380907 10.5391 0.312077 11.4949C0.243319 12.4507 0.712435 13.3484 1.53646 13.8375L8.72105 18.1025L12.986 25.2871C13.4751 26.1111 14.3727 26.5802 15.3286 26.5115C16.2863 26.4426 17.1063 25.8482 17.4718 24.9643L26.1631 3.94475C26.5589 2.98775 26.3498 1.93832 25.6175 1.20604C24.8852 0.473755 23.8358 0.264674 22.8788 0.660395ZM24.7531 3.36178L16.0618 24.3813C15.9156 24.7347 15.6007 24.9622 15.2191 24.9896C14.8376 25.0171 14.4933 24.8371 14.298 24.5082L10.2363 17.6661L15.5969 12.3055C15.8948 12.0075 15.8948 11.5245 15.5969 11.2265C15.299 10.9286 14.8159 10.9286 14.518 11.2265L9.15744 16.5871L2.31534 12.5255C1.98644 12.3303 1.80645 11.9859 1.83389 11.6044C1.86133 11.2229 2.08864 10.908 2.44218 10.7617L23.4617 2.07041C24.0278 1.83633 24.4291 2.17541 24.5386 2.28492C24.6481 2.39442 24.9872 2.79571 24.7531 3.36178Z" fill="#FF7322"/>
</svg>
