<svg width="14" height="12" viewBox="0 0 14 12" fill="none" xmlns="http://www.w3.org/2000/svg">
<path d="M13.2408 11.8334C13.2447 11.7539 13.2498 11.6925 13.2498 11.6306C13.2503 10.2105 13.2533 8.7903 13.2473 7.37056C13.246 7.07063 13.2257 6.76901 13.1883 6.4716C12.9946 4.93829 12.0551 3.97455 10.5427 3.80376C9.45722 3.68093 8.53446 3.99895 7.87854 4.90295C7.85186 4.93955 7.81958 4.97194 7.75029 5.05145C7.75029 4.65939 7.75029 4.32118 7.75029 3.97623C6.8456 3.97623 5.96932 3.97623 5.08831 3.97623C5.08831 6.60285 5.08831 9.21475 5.08831 11.8292C5.97965 11.8292 6.85679 11.8292 7.7533 11.8292C7.7533 11.7341 7.7533 11.6516 7.7533 11.5692C7.7533 10.5201 7.75201 9.47051 7.75416 8.42138C7.75502 8.00871 7.75373 7.59562 7.77137 7.18379C7.79203 6.7097 8.03693 6.34583 8.42514 6.08165C9.19727 5.5554 10.1958 5.88983 10.4519 6.7707C10.5362 7.0618 10.5651 7.37645 10.5676 7.68101C10.5797 8.98927 10.5728 10.2971 10.5728 11.6054C10.5728 11.6794 10.5728 11.7535 10.5728 11.8346C11.4723 11.8334 12.3434 11.8334 13.2408 11.8334ZM0.927697 3.96067C0.927697 6.60538 0.927697 9.21769 0.927697 11.8266C1.82205 11.8266 2.69919 11.8266 3.59613 11.8266C3.59613 11.7312 3.59613 11.6483 3.59613 11.5654C3.59613 9.21433 3.59613 6.86366 3.59613 4.51258C3.59613 4.39353 3.58623 4.27364 3.59829 4.15585C3.61507 3.99432 3.54664 3.95562 3.38998 3.9573C2.68843 3.96445 1.98689 3.96067 1.28492 3.96067C1.17216 3.96067 1.05897 3.96067 0.927697 3.96067ZM2.17627 0.167969C1.69078 0.185637 1.18722 0.369887 0.902304 0.919273C0.53604 1.62599 0.859695 2.46731 1.60298 2.77103C2.44311 3.11429 3.43344 2.7378 3.69469 1.97598C4.01361 1.04589 3.3323 0.172596 2.17627 0.167969Z" fill="white"/>
</svg>
