<svg width="14" height="16" viewBox="0 0 14 16" fill="none" xmlns="http://www.w3.org/2000/svg">
<path fill-rule="evenodd" clip-rule="evenodd" d="M7.56128 1.03553C7.25219 0.726439 6.7477 0.726439 6.43862 1.03553L0.384505 7.08984C0.0749394 7.39941 0.0749394 7.90298 0.384505 8.21251L0.723157 8.55116C1.033 8.861 1.53629 8.86107 1.8462 8.5512L6.43848 3.95847C6.74832 3.64856 7.25172 3.64856 7.56155 3.95847L12.1539 8.55116C12.4637 8.86107 12.967 8.86103 13.2769 8.55113L13.6155 8.21247C13.9246 7.90339 13.9246 7.3989 13.6155 7.08981L7.56128 1.03553ZM13.6156 13.5023C13.925 13.8117 13.925 14.3157 13.6156 14.6251L13.2769 14.9638C12.9677 15.273 12.4632 15.2731 12.1539 14.9638L7.56155 10.3713C7.25168 10.0614 6.74835 10.0614 6.43848 10.3713L1.84616 14.9638C1.5368 15.2732 1.03248 15.2732 0.723122 14.9638L0.384469 14.6252C0.0749382 14.3156 0.0749039 13.8119 0.384469 13.5023L5.90117 7.9858C4.35526 6.43834 4.7473 6.82977 5.9023 7.98467L6.43862 7.44839C6.74791 7.1391 7.25202 7.13913 7.56132 7.44839L13.6156 13.5023Z" fill="#FFFBF9"/>
</svg>
