<svg width="16" height="17" viewBox="0 0 16 17" fill="none" xmlns="http://www.w3.org/2000/svg">
<path d="M8.37109 0.666626C7.547 0.666626 6.74142 0.910997 6.05622 1.36884C5.37101 1.82668 4.83696 2.47742 4.5216 3.23878C4.20623 4.00014 4.12372 4.83792 4.28449 5.64617C4.44526 6.45442 4.8421 7.19685 5.42482 7.77957C6.00753 8.36229 6.74996 8.75913 7.55822 8.9199C8.36647 9.08067 9.20425 8.99816 9.96561 8.68279C10.727 8.36743 11.3777 7.83337 11.8356 7.14817C12.2934 6.46296 12.5378 5.65738 12.5378 4.83329C12.5378 3.72822 12.0988 2.66842 11.3174 1.88701C10.536 1.10561 9.47616 0.666626 8.37109 0.666626ZM8.37109 7.33329C7.87664 7.33329 7.39329 7.18667 6.98217 6.91197C6.57104 6.63726 6.25061 6.24682 6.06139 5.79C5.87218 5.33319 5.82267 4.83052 5.91913 4.34557C6.01559 3.86061 6.2537 3.41516 6.60333 3.06553C6.95296 2.71589 7.39842 2.47779 7.88337 2.38133C8.36832 2.28487 8.87099 2.33438 9.3278 2.52359C9.78462 2.71281 10.1751 3.03324 10.4498 3.44437C10.7245 3.85549 10.8711 4.33884 10.8711 4.83329C10.8711 5.49633 10.6077 6.13222 10.1389 6.60106C9.67002 7.0699 9.03413 7.33329 8.37109 7.33329ZM15.8711 16.5V15.6666C15.8711 14.1195 15.2565 12.6358 14.1625 11.5418C13.0686 10.4479 11.5849 9.83329 10.0378 9.83329H6.70443C5.15733 9.83329 3.6736 10.4479 2.57964 11.5418C1.48568 12.6358 0.871094 14.1195 0.871094 15.6666V16.5H2.53776V15.6666C2.53776 14.5616 2.97675 13.5018 3.75815 12.7203C4.53955 11.9389 5.59936 11.5 6.70443 11.5H10.0378C11.1428 11.5 12.2026 11.9389 12.984 12.7203C13.7654 13.5018 14.2044 14.5616 14.2044 15.6666V16.5H15.8711Z" fill="#161616"/>
</svg>
