<svg width="16" height="11" viewBox="0 0 16 11" fill="none" xmlns="http://www.w3.org/2000/svg">
<path d="M14.7337 2.48597C14.5716 1.88353 14.0966 1.40863 13.4943 1.24641C12.3938 0.945312 7.99202 0.945312 7.99202 0.945312C7.99202 0.945312 3.59036 0.945312 2.48993 1.23499C1.89915 1.39704 1.41258 1.88361 1.25053 2.48597C0.960938 3.58632 0.960938 5.8683 0.960938 5.8683C0.960938 5.8683 0.960938 8.16179 1.25053 9.25063C1.41275 9.85299 1.88757 10.3279 2.49001 10.4901C3.60195 10.7913 7.99219 10.7913 7.99219 10.7913C7.99219 10.7913 12.3938 10.7913 13.4943 10.5016C14.0967 10.3395 14.5716 9.86458 14.7338 9.26222C15.0234 8.16179 15.0234 5.87989 15.0234 5.87989C15.0234 5.87989 15.0349 3.58632 14.7337 2.48597ZM6.59057 7.97648V3.76013L10.2509 5.8683L6.59057 7.97648Z" fill="white"/>
</svg>
